<?xml version="1.0" encoding="UTF-8"?><svg xmlns="http://www.w3.org/2000/svg" xmlns:xlink="http://www.w3.org/1999/xlink" contentScriptType="text/ecmascript" width="375pt" zoomAndPan="magnify" contentStyleType="text/css" viewBox="0 0 375 374.999991" height="374.999991pt" preserveAspectRatio="xMidYMid meet" version="1.2"><defs><g/></defs><g xml:id="surface1" id="surface1"><g style="fill:rgb(46.269226%,2.349854%,2.349854%);fill-opacity:1;"><g transform="translate(37.500002, 177.939276)"><path style="stroke:none;" d="M 67.53125 -110.078125 C 68.1875 -107.785156 68.515625 -105.476562 68.515625 -103.15625 C 68.515625 -96.96875 68.164062 -90.800781 67.46875 -84.65625 C 67.351562 -83.375 67.25 -82.113281 67.15625 -80.875 C 66.414062 -72.207031 65.550781 -63.5625 64.5625 -54.9375 C 63.726562 -47.507812 62.863281 -40.082031 61.96875 -32.65625 C 61.625 -29.84375 61.273438 -27.015625 60.921875 -24.171875 C 60.128906 -17.304688 59.316406 -10.429688 58.484375 -3.546875 C 57.242188 6.722656 56.34375 16.976562 55.78125 27.21875 C 55.601562 30.976562 54.753906 33.144531 53.234375 33.71875 C 51.710938 34.289062 51.050781 30.945312 51.25 23.6875 C 51.457031 16.425781 51.890625 9.179688 52.546875 1.953125 C 53.222656 -5.128906 54.007812 -12.207031 54.90625 -19.28125 C 55.3125 -22.613281 55.679688 -25.9375 56.015625 -29.25 C 56.222656 -30.976562 56.425781 -32.734375 56.625 -34.515625 C 57.207031 -39.617188 57.769531 -44.71875 58.3125 -49.8125 C 59.59375 -62.394531 60.832031 -74.976562 62.03125 -87.5625 C 62.320312 -90.738281 62.523438 -93.910156 62.640625 -97.078125 C 62.679688 -98.117188 62.726562 -99.132812 62.78125 -100.125 C 62.78125 -100.164062 62.78125 -100.207031 62.78125 -100.25 C 62.820312 -100.539062 62.78125 -100.859375 62.65625 -101.203125 C 62.53125 -101.554688 62.195312 -101.9375 61.65625 -102.34375 C 60.707031 -100.8125 59.796875 -99.328125 58.921875 -97.890625 C 56.984375 -94.765625 55.101562 -91.644531 53.28125 -88.53125 C 48.507812 -80.457031 43.992188 -72.28125 39.734375 -64 C 35.484375 -55.726562 31.625 -47.335938 28.15625 -38.828125 C 28.113281 -38.710938 28.09375 -38.632812 28.09375 -38.59375 C 28.050781 -38.394531 27.972656 -38.226562 27.859375 -38.09375 C 25.492188 -33.632812 25.347656 -29.03125 27.421875 -24.28125 C 29.847656 -18.925781 31.039062 -13.351562 31 -7.5625 C 31 -6.457031 30.9375 -5.375 30.8125 -4.3125 C 30.6875 -3.257812 30.378906 -2.203125 29.890625 -1.140625 C 29.191406 0.472656 27.875 1.675781 25.9375 2.46875 C 23.550781 3.320312 21.648438 2.90625 20.234375 1.21875 C 19.421875 0.226562 18.816406 -0.820312 18.421875 -1.9375 C 18.023438 -3.050781 17.726562 -4.179688 17.53125 -5.328125 C 17.03125 -7.898438 16.859375 -10.460938 17.015625 -13.015625 C 17.171875 -15.566406 17.460938 -18.128906 17.890625 -20.703125 C 17.890625 -20.859375 17.890625 -21.003906 17.890625 -21.140625 C 18.097656 -22.492188 18.425781 -23.8125 18.875 -25.09375 C 19.375 -26.375 19.5625 -27.632812 19.4375 -28.875 C 19.3125 -30.113281 18.976562 -31.347656 18.4375 -32.578125 C 14.476562 -41.835938 9.71875 -50.832031 4.15625 -59.5625 C 3.570312 -60.445312 2.953125 -61.316406 2.296875 -62.171875 C 2.160156 -62.347656 2.035156 -62.535156 1.921875 -62.734375 C 1.878906 -62.785156 1.804688 -62.828125 1.703125 -62.859375 C 1.597656 -62.890625 1.523438 -62.90625 1.484375 -62.90625 C 1.347656 -62.84375 1.203125 -62.773438 1.046875 -62.703125 C 0.890625 -62.640625 0.789062 -62.550781 0.75 -62.4375 C 0.613281 -62.101562 0.566406 -61.707031 0.609375 -61.25 C 0.398438 -51.84375 0.128906 -42.410156 -0.203125 -32.953125 C -0.765625 -19.785156 -1.046875 -6.617188 -1.046875 6.546875 C -1.046875 8.597656 -1.015625 10.632812 -0.953125 12.65625 C -0.953125 13 -0.988281 13.332031 -1.0625 13.65625 C -1.144531 13.988281 -1.332031 14.300781 -1.625 14.59375 C -1.914062 14.832031 -2.242188 15.015625 -2.609375 15.140625 C -2.984375 15.265625 -3.394531 15.304688 -3.84375 15.265625 C -4.25 15.148438 -4.523438 14.984375 -4.671875 14.765625 C -4.816406 14.554688 -4.914062 14.296875 -4.96875 13.984375 C -5.070312 13.191406 -5.125 12.378906 -5.125 11.546875 C -5.425781 1.691406 -5.609375 -8.1875 -5.671875 -18.09375 C -5.742188 -28 -5.585938 -37.90625 -5.203125 -47.8125 C -4.910156 -54.164062 -4.832031 -60.523438 -4.96875 -66.890625 C -4.96875 -67.796875 -4.96875 -68.539062 -4.96875 -69.125 C -4.914062 -70.019531 -4.925781 -70.710938 -5 -71.203125 C -5.082031 -71.703125 -5.3125 -72.195312 -5.6875 -72.6875 C -6.0625 -73.1875 -6.664062 -73.890625 -7.5 -74.796875 C -7.832031 -75.179688 -8.25 -75.644531 -8.75 -76.1875 C -9.15625 -76.632812 -9.582031 -77.082031 -10.03125 -77.53125 C -10.726562 -78.269531 -11.390625 -79.035156 -12.015625 -79.828125 C -12.378906 -80.179688 -12.570312 -80.546875 -12.59375 -80.921875 C -12.613281 -81.296875 -12.398438 -81.648438 -11.953125 -81.984375 C -10.921875 -82.734375 -9.828125 -82.8125 -8.671875 -82.21875 C -8.378906 -82.0625 -8.132812 -81.882812 -7.9375 -81.6875 C -6.851562 -80.40625 -5.421875 -80.210938 -3.640625 -81.109375 C -2.160156 -81.691406 -1.238281 -81.21875 -0.875 -79.6875 C -0.488281 -78.207031 -0.195312 -76.722656 0 -75.234375 C 0.113281 -73.992188 0.609375 -72.859375 1.484375 -71.828125 C 5.441406 -67.003906 8.976562 -62.003906 12.09375 -56.828125 C 15.21875 -51.648438 18.078125 -46.375 20.671875 -41 C 20.710938 -40.882812 20.734375 -40.800781 20.734375 -40.75 C 21.066406 -40.050781 21.4375 -39.351562 21.84375 -38.65625 C 21.894531 -38.613281 21.992188 -38.554688 22.140625 -38.484375 C 22.285156 -38.421875 22.4375 -38.390625 22.59375 -38.390625 C 22.75 -38.441406 22.890625 -38.5 23.015625 -38.5625 C 23.140625 -38.625 23.242188 -38.710938 23.328125 -38.828125 C 23.578125 -39.328125 23.78125 -39.800781 23.9375 -40.25 C 24.03125 -40.425781 24.097656 -40.59375 24.140625 -40.75 C 28.960938 -52.144531 34.378906 -63.328125 40.390625 -74.296875 C 46.398438 -85.273438 52.847656 -96.113281 59.734375 -106.8125 C 60.316406 -107.75 60.957031 -108.679688 61.65625 -109.609375 C 62.269531 -110.503906 63.160156 -111.078125 64.328125 -111.328125 C 65.972656 -111.671875 67.039062 -111.253906 67.53125 -110.078125 Z M 25.796875 -3.75 C 25.972656 -6.332031 25.832031 -8.894531 25.375 -11.4375 C 24.914062 -13.988281 24.210938 -16.601562 23.265625 -19.28125 C 23.066406 -19.082031 22.921875 -18.914062 22.828125 -18.78125 C 22.578125 -18.570312 22.421875 -18.421875 22.359375 -18.328125 C 21.179688 -13.222656 21.425781 -8.171875 23.09375 -3.171875 C 23.25 -2.765625 23.472656 -2.394531 23.765625 -2.0625 C 23.878906 -1.945312 23.984375 -1.84375 24.078125 -1.75 C 24.273438 -1.457031 24.546875 -1.414062 24.890625 -1.625 C 24.929688 -1.664062 25.007812 -1.6875 25.125 -1.6875 C 25.164062 -1.726562 25.207031 -1.75 25.25 -1.75 C 25.300781 -1.75 25.328125 -1.773438 25.328125 -1.828125 C 25.390625 -1.984375 25.421875 -2.101562 25.421875 -2.1875 C 25.609375 -2.726562 25.734375 -3.25 25.796875 -3.75 Z M 25.796875 -3.75 "/></g></g><g style="fill:rgb(46.269226%,2.349854%,2.349854%);fill-opacity:1;"><g transform="translate(103.430715, 177.939276)"><path style="stroke:none;" d="M 19.3125 -22.328125 C 20.351562 -22.429688 21.070312 -22.238281 21.46875 -21.75 C 21.8125 -21.207031 21.957031 -19.328125 21.90625 -16.109375 C 21.863281 -12.890625 21.707031 -9.144531 21.4375 -4.875 C 21.164062 -0.613281 20.851562 3.332031 20.5 6.96875 C 20.15625 10.601562 19.882812 13.144531 19.6875 14.59375 C 18.25 22.851562 15.671875 29.753906 11.953125 35.296875 C 8.234375 40.847656 3.988281 45.140625 -0.78125 48.171875 C -5.550781 51.203125 -10.253906 53.035156 -14.890625 53.671875 C -19.523438 54.316406 -23.460938 53.867188 -26.703125 52.328125 C -29.953125 50.785156 -31.882812 48.21875 -32.5 44.625 C -33.125 41.03125 -31.820312 36.507812 -28.59375 31.0625 C -25.375 25.613281 -19.632812 19.332031 -11.375 12.21875 C -8.09375 9.5 -3.539062 6.203125 2.28125 2.328125 C 8.101562 -1.546875 12.710938 -4.164062 16.109375 -5.53125 C 16.171875 -6.1875 16.226562 -6.882812 16.28125 -7.625 C 14.882812 -6.03125 13.453125 -5.109375 11.984375 -4.859375 C 10.523438 -4.609375 9.175781 -4.585938 7.9375 -4.796875 C 7.84375 -4.796875 7.773438 -4.796875 7.734375 -4.796875 C 5.503906 -5.085938 3.757812 -6.113281 2.5 -7.875 C 1.238281 -9.644531 0.429688 -11.65625 0.078125 -13.90625 C -0.265625 -16.164062 -0.164062 -18.179688 0.375 -19.953125 C 0.914062 -21.734375 1.925781 -22.804688 3.40625 -23.171875 C 4.019531 -23.253906 4.695312 -23.304688 5.4375 -23.328125 C 6.175781 -23.359375 6.789062 -23.273438 7.28125 -23.078125 C 7.78125 -22.890625 7.976562 -22.488281 7.875 -21.875 C 7.375 -20.101562 7.085938 -18.140625 7.015625 -15.984375 C 6.953125 -13.835938 7.140625 -11.957031 7.578125 -10.34375 C 8.015625 -8.738281 8.800781 -7.875 9.9375 -7.75 C 11.082031 -7.625 12.617188 -8.675781 14.546875 -10.90625 C 15.453125 -12.03125 16.070312 -13.234375 16.40625 -14.515625 C 16.40625 -15.910156 16.382812 -17.226562 16.34375 -18.46875 C 16.300781 -19.613281 16.28125 -20.582031 16.28125 -21.375 C 16.519531 -21.757812 16.921875 -22.015625 17.484375 -22.140625 C 18.046875 -22.265625 18.554688 -22.328125 19.015625 -22.328125 C 19.128906 -22.328125 19.226562 -22.328125 19.3125 -22.328125 Z M 15.96875 0.40625 C 15.96875 0.363281 15.96875 0.304688 15.96875 0.234375 C 16.019531 -0.0546875 16.054688 -0.4375 16.078125 -0.90625 C 16.097656 -1.382812 16.0625 -1.757812 15.96875 -2.03125 C 15.882812 -2.300781 15.679688 -2.332031 15.359375 -2.125 C 15.023438 -1.875 14.632812 -1.601562 14.1875 -1.3125 C 11.320312 0.625 7.570312 3.320312 2.9375 6.78125 C -1.695312 10.25 -6.347656 14.164062 -11.015625 18.53125 C -11.929688 19.414062 -13.242188 20.734375 -14.953125 22.484375 C -16.671875 24.242188 -18.46875 26.253906 -20.34375 28.515625 C -22.226562 30.773438 -23.878906 33.101562 -25.296875 35.5 C -26.710938 37.90625 -27.59375 40.171875 -27.9375 42.296875 C -28.289062 44.421875 -27.8125 46.25 -26.5 47.78125 C -24.769531 49.625 -22.257812 50.421875 -18.96875 50.171875 C -15.6875 49.929688 -12.085938 48.695312 -8.171875 46.46875 C -4.253906 44.238281 -0.488281 41.03125 3.125 36.84375 C 6.738281 32.65625 9.734375 27.515625 12.109375 21.421875 C 14.484375 15.335938 15.769531 8.332031 15.96875 0.40625 Z M 15.96875 0.40625 "/></g></g><g style="fill:rgb(46.269226%,2.349854%,2.349854%);fill-opacity:1;"><g transform="translate(127.221721, 177.939276)"><path style="stroke:none;" d=""/></g></g><g style="fill:rgb(46.269226%,2.349854%,2.349854%);fill-opacity:1;"><g transform="translate(140.91675, 177.939276)"><path style="stroke:none;" d="M 98.5 -102.421875 C 105.226562 -98.253906 104.6875 -93.34375 96.875 -87.6875 C 89.09375 -82.15625 62.566406 -70.765625 17.296875 -53.515625 C 16.859375 -53.378906 16.550781 -53.175781 16.375 -52.90625 C 16.195312 -52.644531 16.21875 -52.484375 16.4375 -52.421875 C 16.664062 -52.367188 16.925781 -52.34375 17.21875 -52.34375 C 17.269531 -52.34375 17.296875 -52.34375 17.296875 -52.34375 C 18.890625 -52.382812 20.472656 -52.484375 22.046875 -52.640625 C 23.734375 -52.796875 25.421875 -52.941406 27.109375 -53.078125 C 29.972656 -53.328125 32.867188 -53.554688 35.796875 -53.765625 C 43.421875 -54.347656 50.992188 -53.875 58.515625 -52.34375 C 62.929688 -51.507812 67.078125 -49.921875 70.953125 -47.578125 C 77.472656 -43.523438 81.160156 -37.679688 82.015625 -30.046875 C 82.554688 -24.554688 82.085938 -19.132812 80.609375 -13.78125 C 78.515625 -6.101562 75.519531 1.164062 71.625 8.03125 C 67.945312 14.675781 63.898438 21.0625 59.484375 27.1875 C 55.078125 33.3125 50.226562 39.0625 44.9375 44.4375 C 43.007812 46.414062 40.976562 48.25 38.84375 49.9375 C 36.71875 51.625 34.394531 53.046875 31.875 54.203125 C 30.4375 54.828125 28.953125 55.363281 27.421875 55.8125 C 22.265625 57.101562 18.054688 55.664062 14.796875 51.5 C 13.234375 49.425781 12.015625 47.148438 11.140625 44.671875 C 9.492188 40.015625 8.40625 35.265625 7.875 30.421875 C 6.425781 19.273438 5.828125 9.832031 6.078125 2.09375 C 6.679688 -15.914062 8.191406 -32.078125 10.609375 -46.390625 C 10.765625 -47.140625 10.769531 -47.757812 10.625 -48.25 C 10.476562 -48.75 10.054688 -49.203125 9.359375 -49.609375 C 8.765625 -49.941406 8.453125 -50.367188 8.421875 -50.890625 C 8.390625 -51.410156 8.625 -51.953125 9.125 -52.515625 C 9.125 -52.554688 9.15625 -52.578125 9.21875 -52.578125 C 9.257812 -52.671875 9.328125 -52.738281 9.421875 -52.78125 C 10.660156 -53.4375 11.503906 -54.296875 11.953125 -55.359375 C 12.398438 -56.429688 12.726562 -57.585938 12.9375 -58.828125 C 13.019531 -59.117188 13.085938 -59.390625 13.140625 -59.640625 C 14.734375 -67.265625 16.613281 -74.789062 18.78125 -82.21875 C 19.019531 -83.207031 19.34375 -84.164062 19.75 -85.09375 C 20.09375 -85.75 20.632812 -86.15625 21.375 -86.3125 C 21.78125 -86.40625 22.144531 -86.335938 22.46875 -86.109375 C 22.800781 -85.878906 22.929688 -85.597656 22.859375 -85.265625 C 22.679688 -84.523438 22.488281 -83.804688 22.28125 -83.109375 C 22.175781 -82.859375 22.097656 -82.585938 22.046875 -82.296875 C 19.972656 -74.703125 18.195312 -67.023438 16.71875 -59.265625 C 16.46875 -57.867188 17.03125 -57.441406 18.40625 -57.984375 C 26.238281 -61.316406 34.09375 -64.535156 41.96875 -67.640625 C 48.613281 -70.316406 55.195312 -73.015625 61.71875 -75.734375 C 68.25 -78.460938 74.769531 -81.3125 81.28125 -84.28125 C 84.882812 -86.019531 88.414062 -87.878906 91.875 -89.859375 C 93.65625 -90.890625 95.289062 -92.082031 96.78125 -93.4375 C 98.957031 -95.457031 98.765625 -97.3125 96.203125 -99 C 94.960938 -99.75 93.644531 -100.367188 92.25 -100.859375 C 88.738281 -102.097656 85.101562 -102.890625 81.34375 -103.234375 C 73.375 -104.171875 65.347656 -104.289062 57.265625 -103.59375 C 39.441406 -102.0625 22.03125 -98.53125 5.03125 -93 C -1 -91.101562 -6.84375 -88.71875 -12.5 -85.84375 C -12.945312 -85.65625 -13.363281 -85.441406 -13.75 -85.203125 C -15.28125 -84.453125 -16.773438 -83.644531 -18.234375 -82.78125 C -19.691406 -81.914062 -21.039062 -80.882812 -22.28125 -79.6875 C -22.738281 -79.28125 -23.257812 -79.007812 -23.84375 -78.875 C -24.445312 -78.675781 -24.941406 -78.847656 -25.328125 -79.390625 C -25.484375 -79.585938 -25.519531 -79.78125 -25.4375 -79.96875 C -25.363281 -80.164062 -25.257812 -80.363281 -25.125 -80.5625 C -24.519531 -81.3125 -23.84375 -81.960938 -23.09375 -82.515625 C -22.351562 -83.066406 -21.585938 -83.554688 -20.796875 -83.984375 C -15.640625 -87.148438 -10.25 -89.875 -4.625 -92.15625 C 5.925781 -96.320312 16.957031 -99.753906 28.46875 -102.453125 C 39.988281 -105.148438 50.390625 -106.757812 59.671875 -107.28125 C 68.960938 -107.800781 78.519531 -107.316406 88.34375 -105.828125 C 92.6875 -104.953125 96.070312 -103.816406 98.5 -102.421875 Z M 17.453125 -48.046875 C 16.347656 -47.929688 15.753906 -47.3125 15.671875 -46.1875 C 15.515625 -44.789062 15.3125 -43.375 15.0625 -41.9375 C 14.71875 -39.507812 14.398438 -37.054688 14.109375 -34.578125 C 13.566406 -28.742188 13.109375 -23 12.734375 -17.34375 C 12.367188 -11.695312 12.207031 -6.296875 12.25 -1.140625 C 12.144531 4.429688 12.234375 9.765625 12.515625 14.859375 C 12.796875 19.960938 13.304688 24.972656 14.046875 29.890625 C 14.628906 34.046875 15.644531 38.082031 17.09375 42 C 17.832031 44.125 18.890625 46.050781 20.265625 47.78125 C 22.984375 51.113281 26.28125 51.9375 30.15625 50.25 C 32.289062 49.300781 34.25 48.039062 36.03125 46.46875 C 38.101562 44.6875 40.082031 42.769531 41.96875 40.71875 C 52.507812 29.28125 61.175781 16.484375 67.96875 2.328125 C 70.65625 -3.023438 72.679688 -8.640625 74.046875 -14.515625 C 74.992188 -18.347656 75.390625 -22.222656 75.234375 -26.140625 C 74.984375 -30.679688 73.832031 -34.570312 71.78125 -37.8125 C 69.738281 -41.0625 66.679688 -43.65625 62.609375 -45.59375 C 58.960938 -47.164062 55.179688 -48.253906 51.265625 -48.859375 C 46.191406 -49.597656 41.144531 -49.84375 36.125 -49.59375 C 31.101562 -49.351562 26.097656 -48.960938 21.109375 -48.421875 C 19.867188 -48.304688 18.648438 -48.179688 17.453125 -48.046875 Z M 17.453125 -48.046875 "/></g></g><g style="fill:rgb(46.269226%,2.349854%,2.349854%);fill-opacity:1;"><g transform="translate(224.371903, 177.939276)"><path style="stroke:none;" d="M 21.546875 -16.171875 C 21.972656 -17.046875 22.265625 -17.453125 22.421875 -17.390625 C 22.578125 -17.328125 22.613281 -16.972656 22.53125 -16.328125 C 22.457031 -15.679688 22.320312 -14.957031 22.125 -14.15625 C 21.820312 -12.914062 21.3125 -11.476562 20.59375 -9.84375 C 19.875 -8.207031 19.078125 -6.726562 18.203125 -5.40625 C 16.898438 -3.5625 15.285156 -2.171875 13.359375 -1.234375 C 11.429688 -0.296875 9.6875 -0.0625 8.125 -0.53125 C 6.5625 -1.007812 5.65625 -2.488281 5.40625 -4.96875 C 5.351562 -7.039062 5.53125 -9.3125 5.9375 -11.78125 C 6.070312 -12.820312 6.21875 -13.835938 6.375 -14.828125 C 6.375 -15.179688 6.285156 -15.453125 6.109375 -15.640625 C 5.929688 -15.835938 5.695312 -15.914062 5.40625 -15.875 C 5.195312 -15.875 4.972656 -15.875 4.734375 -15.875 C 3.492188 -15.664062 2.234375 -15.6875 0.953125 -15.9375 C -0.578125 -16.382812 -1.46875 -17.144531 -1.71875 -18.21875 C -1.96875 -19.289062 -1.945312 -20.691406 -1.65625 -22.421875 C -1.5 -23.660156 -1.035156 -24.585938 -0.265625 -25.203125 C 0.492188 -25.828125 1.394531 -26.082031 2.4375 -25.96875 C 3.875 -25.832031 4.566406 -25.28125 4.515625 -24.3125 C 4.472656 -23.34375 4.207031 -22.304688 3.71875 -21.203125 C 3.269531 -20.285156 3.03125 -19.515625 3 -18.890625 C 2.976562 -18.273438 3.507812 -18.054688 4.59375 -18.234375 C 4.84375 -18.296875 5.113281 -18.375 5.40625 -18.46875 C 5.8125 -18.625 6.269531 -18.765625 6.78125 -18.890625 C 7.300781 -19.015625 7.976562 -19.046875 8.8125 -18.984375 C 9.800781 -18.929688 10.457031 -18.472656 10.78125 -17.609375 C 11.113281 -16.742188 11.253906 -15.65625 11.203125 -14.34375 C 11.160156 -13.039062 11.039062 -11.710938 10.84375 -10.359375 C 10.59375 -8.671875 10.46875 -7.222656 10.46875 -6.015625 C 10.46875 -4.816406 10.816406 -4.117188 11.515625 -3.921875 C 12.441406 -3.671875 13.820312 -4.503906 15.65625 -6.421875 C 17.488281 -8.347656 19.453125 -11.597656 21.546875 -16.171875 Z M 21.546875 -16.171875 "/></g></g><g style="fill:rgb(46.269226%,2.349854%,2.349854%);fill-opacity:1;"><g transform="translate(241.578586, 177.939276)"><path style="stroke:none;" d="M 49.90625 -19.515625 C 50.3125 -20.054688 50.738281 -20.453125 51.1875 -20.703125 C 51.644531 -20.953125 51.914062 -20.953125 52 -20.703125 C 52.09375 -20.453125 51.847656 -19.851562 51.265625 -18.90625 C 49.929688 -16.925781 47.972656 -15.046875 45.390625 -13.265625 C 42.816406 -11.492188 39.972656 -9.976562 36.859375 -8.71875 C 33.742188 -7.457031 30.695312 -6.625 27.71875 -6.21875 C 24.75 -5.8125 22.234375 -6.003906 20.171875 -6.796875 C 18.117188 -7.597656 16.84375 -9.160156 16.34375 -11.484375 C 14.613281 -8.671875 12.5625 -6.46875 10.1875 -4.875 C 7.8125 -3.289062 5.550781 -2.625 3.40625 -2.875 C 0.976562 -3.207031 -0.640625 -4.113281 -1.453125 -5.59375 C -2.265625 -7.082031 -2.535156 -8.796875 -2.265625 -10.734375 C -1.992188 -12.671875 -1.40625 -14.507812 -0.5 -16.25 C 0.164062 -17.570312 1.117188 -18.804688 2.359375 -19.953125 C 3.597656 -21.097656 4.894531 -21.988281 6.25 -22.625 C 7.9375 -23.476562 9.628906 -23.863281 11.328125 -23.78125 C 13.023438 -23.707031 14.84375 -23.15625 16.78125 -22.125 C 16.78125 -22.125 16.800781 -22.164062 16.84375 -22.25 C 16.84375 -22.457031 16.882812 -22.695312 16.96875 -22.96875 C 17.050781 -23.238281 17.210938 -23.472656 17.453125 -23.671875 C 17.796875 -23.921875 18.226562 -24.117188 18.75 -24.265625 C 19.28125 -24.410156 19.796875 -24.4375 20.296875 -24.34375 C 21.078125 -24.1875 21.5625 -23.785156 21.75 -23.140625 C 21.945312 -22.503906 21.984375 -21.800781 21.859375 -21.03125 C 21.734375 -20.269531 21.601562 -19.617188 21.46875 -19.078125 C 21.425781 -18.960938 21.40625 -18.863281 21.40625 -18.78125 C 20.59375 -15.507812 20.882812 -13.210938 22.28125 -11.890625 C 23.675781 -10.578125 25.695312 -9.972656 28.34375 -10.078125 C 30.988281 -10.179688 33.796875 -10.738281 36.765625 -11.75 C 39.742188 -12.757812 42.445312 -13.96875 44.875 -15.375 C 47.3125 -16.78125 48.988281 -18.160156 49.90625 -19.515625 Z M 4.390625 -7.265625 C 5.421875 -6.566406 6.53125 -6.640625 7.71875 -7.484375 C 8.914062 -8.328125 10.082031 -9.539062 11.21875 -11.125 C 12.363281 -12.707031 13.304688 -14.285156 14.046875 -15.859375 C 14.785156 -17.441406 15.203125 -18.640625 15.296875 -19.453125 C 12.929688 -20.734375 10.90625 -20.960938 9.21875 -20.140625 C 7.53125 -19.316406 6.210938 -18.003906 5.265625 -16.203125 C 4.316406 -14.398438 3.769531 -12.613281 3.625 -10.84375 C 3.476562 -9.082031 3.734375 -7.890625 4.390625 -7.265625 Z M 4.390625 -7.265625 "/></g></g><g style="fill:rgb(46.269226%,2.349854%,2.349854%);fill-opacity:1;"><g transform="translate(286.405685, 177.939276)"><path style="stroke:none;" d="M 3.28125 -3 C 2.820312 -2.957031 2.320312 -3.273438 1.78125 -3.953125 C 1.25 -4.628906 0.78125 -5.789062 0.375 -7.4375 C -0.03125 -9.09375 -0.175781 -11.382812 -0.0625 -14.3125 C -0.0625 -14.601562 -0.0625 -14.976562 -0.0625 -15.4375 C -0.0625 -16.5625 -0.015625 -17.878906 0.078125 -19.390625 C 0.179688 -20.910156 0.398438 -22.273438 0.734375 -23.484375 C 1.078125 -24.691406 1.597656 -25.414062 2.296875 -25.65625 C 4.390625 -26.21875 5.523438 -25.476562 5.703125 -23.4375 C 5.703125 -22.800781 5.679688 -22.160156 5.640625 -21.515625 C 5.597656 -21.222656 5.578125 -20.90625 5.578125 -20.5625 C 5.523438 -19.613281 5.476562 -18.691406 5.4375 -17.796875 C 5.4375 -17.003906 5.398438 -16.238281 5.328125 -15.5 C 5.328125 -15 5.328125 -14.28125 5.328125 -13.34375 C 5.398438 -12.007812 5.414062 -10.5625 5.375 -9 C 5.34375 -7.4375 5.171875 -6.070312 4.859375 -4.90625 C 4.546875 -3.75 4.019531 -3.113281 3.28125 -3 Z M 5.265625 -32.65625 C 5.015625 -32.40625 4.671875 -32.242188 4.234375 -32.171875 C 3.796875 -32.109375 3.453125 -32.144531 3.203125 -32.28125 C 2.960938 -32.53125 2.800781 -32.804688 2.71875 -33.109375 C 2.632812 -33.410156 2.59375 -33.773438 2.59375 -34.203125 C 2.644531 -34.316406 2.671875 -34.421875 2.671875 -34.515625 C 2.710938 -34.921875 2.8125 -35.3125 2.96875 -35.6875 C 3.414062 -36.84375 4.328125 -37.335938 5.703125 -37.171875 C 6.203125 -37.128906 6.570312 -36.929688 6.8125 -36.578125 C 7.0625 -36.234375 7.144531 -35.847656 7.0625 -35.421875 C 6.71875 -34.359375 6.117188 -33.4375 5.265625 -32.65625 Z M 5.265625 -32.65625 "/></g></g><g style="fill:rgb(46.269226%,2.349854%,2.349854%);fill-opacity:1;"><g transform="translate(292.131988, 177.939276)"><path style="stroke:none;" d="M 49.78125 -20.46875 C 50.769531 -20.914062 51.34375 -20.992188 51.5 -20.703125 C 51.675781 -20.117188 51.144531 -19.066406 49.90625 -17.546875 C 48.664062 -16.023438 46.988281 -14.476562 44.875 -12.90625 C 39.769531 -9.34375 35.472656 -7.210938 31.984375 -6.515625 C 28.492188 -5.816406 25.644531 -6.035156 23.4375 -7.171875 C 21.226562 -8.304688 19.582031 -9.867188 18.5 -11.859375 C 17.21875 -14.085938 16.421875 -16.289062 16.109375 -18.46875 C 15.679688 -20.851562 15.09375 -22.203125 14.34375 -22.515625 C 13.601562 -22.835938 12.8125 -22.503906 11.96875 -21.515625 C 11.125 -20.523438 10.300781 -19.222656 9.5 -17.609375 C 8.707031 -16.003906 8.050781 -14.4375 7.53125 -12.90625 C 7.007812 -11.375 6.726562 -10.210938 6.6875 -9.421875 C 6.53125 -8.972656 6.382812 -8.546875 6.25 -8.140625 C 6.039062 -7.503906 5.816406 -6.882812 5.578125 -6.28125 C 4.921875 -4.59375 3.78125 -3.972656 2.15625 -4.421875 C 1.257812 -4.578125 0.742188 -5.128906 0.609375 -6.078125 C 0.535156 -6.710938 0.5 -7.378906 0.5 -8.078125 C 0.5 -8.609375 0.476562 -9.179688 0.4375 -9.796875 C 0.34375 -13.847656 0.242188 -17.929688 0.140625 -22.046875 C 0.140625 -22.546875 0.375 -22.890625 0.84375 -23.078125 C 1.3125 -23.273438 1.851562 -23.359375 2.46875 -23.328125 C 3.09375 -23.304688 3.640625 -23.210938 4.109375 -23.046875 C 4.585938 -22.878906 4.847656 -22.640625 4.890625 -22.328125 C 5.003906 -21.648438 5.0625 -21.0625 5.0625 -20.5625 C 5.0625 -19.863281 5.101562 -19.363281 5.1875 -19.0625 C 5.28125 -18.757812 5.488281 -18.769531 5.8125 -19.09375 C 6.144531 -19.414062 6.707031 -20.097656 7.5 -21.140625 C 8.738281 -23.117188 10.300781 -24.804688 12.1875 -26.203125 C 13.019531 -26.835938 14.003906 -27.296875 15.140625 -27.578125 C 16.273438 -27.859375 17.375 -27.894531 18.4375 -27.6875 C 19.5625 -27.394531 20.441406 -26.753906 21.078125 -25.765625 C 21.722656 -24.773438 22.207031 -23.644531 22.53125 -22.375 C 22.863281 -21.101562 23.109375 -19.925781 23.265625 -18.84375 C 23.304688 -18.550781 23.351562 -18.300781 23.40625 -18.09375 C 23.644531 -16.65625 23.972656 -15.34375 24.390625 -14.15625 C 24.804688 -12.976562 25.488281 -12.050781 26.4375 -11.375 C 27.382812 -10.695312 28.769531 -10.441406 30.59375 -10.609375 C 34.550781 -10.898438 37.695312 -11.722656 40.03125 -13.078125 C 42.363281 -14.441406 44.328125 -15.890625 45.921875 -17.421875 C 46.171875 -17.628906 46.382812 -17.832031 46.5625 -18.03125 C 46.925781 -18.28125 47.234375 -18.53125 47.484375 -18.78125 C 48.066406 -19.40625 48.832031 -19.96875 49.78125 -20.46875 Z M 49.78125 -20.46875 "/></g></g><g style="fill:rgb(46.269226%,2.349854%,2.349854%);fill-opacity:1;"><g transform="translate(37.500002, 243.189272)"><path style="stroke:none;" d="M 69.15625 -17.125 C 69.269531 -17.28125 69.328125 -17.484375 69.328125 -17.734375 L 69.453125 -19.078125 C 69.660156 -22.679688 69.832031 -26.296875 69.96875 -29.921875 C 70.375 -37.796875 70.800781 -45.640625 71.25 -53.453125 C 71.582031 -59.265625 71.953125 -65.039062 72.359375 -70.78125 C 72.742188 -76.769531 73.117188 -82.753906 73.484375 -88.734375 C 73.523438 -89.429688 73.566406 -90.109375 73.609375 -90.765625 C 73.859375 -94.816406 74.722656 -97.296875 76.203125 -98.203125 C 77.691406 -99.117188 78.742188 -98.585938 79.359375 -96.609375 C 79.148438 -92.847656 78.921875 -89.085938 78.671875 -85.328125 C 78.472656 -82.609375 78.296875 -79.910156 78.140625 -77.234375 C 77.847656 -71.734375 77.53125 -66.21875 77.1875 -60.6875 C 76.289062 -45.957031 75.492188 -31.242188 74.796875 -16.546875 C 73.921875 1.390625 73.75 19.34375 74.28125 37.3125 C 74.375 39.09375 74.457031 40.882812 74.53125 42.6875 C 74.570312 47.4375 74.078125 49.878906 73.046875 50.015625 C 72.796875 50.421875 72.515625 50.597656 72.203125 50.546875 C 71.023438 50.429688 70.25 47.179688 69.875 40.796875 C 69.507812 34.421875 69.289062 28.207031 69.21875 22.15625 C 68.789062 11.207031 68.769531 0.71875 69.15625 -9.3125 L 69.15625 -9.921875 C 69.195312 -10.265625 69.195312 -10.640625 69.15625 -11.046875 C 69.195312 -12.328125 68.597656 -12.945312 67.359375 -12.90625 L 66.359375 -12.90625 C 63.671875 -12.945312 60.988281 -12.921875 58.3125 -12.828125 C 48.164062 -12.179688 38.0625 -10.988281 28 -9.25 C 27.207031 -9.113281 26.539062 -9.015625 26 -8.953125 C 25.207031 -8.816406 24.613281 -8.671875 24.21875 -8.515625 C 24.125 -8.378906 24.054688 -8.1875 24.015625 -7.9375 C 23.898438 -7.332031 23.742188 -4.921875 23.546875 -0.703125 C 23.359375 3.503906 23.082031 8.847656 22.71875 15.328125 C 22.476562 20.578125 22.234375 25.859375 21.984375 31.171875 C 21.984375 31.753906 21.914062 32.316406 21.78125 32.859375 C 21.570312 33.347656 21.269531 33.671875 20.875 33.828125 C 20.53125 34.285156 20.03125 34.515625 19.375 34.515625 C 18.550781 34.441406 18.082031 34.015625 17.96875 33.234375 C 17.914062 31.785156 17.914062 30.351562 17.96875 28.9375 L 18.703125 4.421875 C 18.816406 1.378906 18.941406 -2.085938 19.078125 -5.984375 C 19.035156 -6.878906 18.570312 -7.304688 17.6875 -7.265625 C 17.53125 -7.265625 17.375 -7.238281 17.21875 -7.1875 C 16.539062 -6.988281 15.832031 -6.8125 15.09375 -6.65625 C 13 -6.15625 10.941406 -5.660156 8.921875 -5.171875 C 8.171875 -4.960938 7.503906 -4.664062 6.921875 -4.28125 C 6.671875 -4.039062 6.546875 -3.71875 6.546875 -3.3125 C 6.484375 -2.925781 6.609375 -2.609375 6.921875 -2.359375 C 8.335938 -1.171875 9.96875 -0.304688 11.8125 0.234375 L 13.5 0.78125 C 14 0.914062 14.53125 1.0625 15.09375 1.21875 C 15.34375 1.300781 15.476562 1.503906 15.5 1.828125 C 15.519531 2.160156 15.40625 2.429688 15.15625 2.640625 C 14.957031 2.773438 14.78125 2.921875 14.625 3.078125 C 14.570312 3.078125 14.523438 3.097656 14.484375 3.140625 C 13.691406 3.835938 12.78125 4.164062 11.75 4.125 C 8.46875 3.832031 5.566406 2.691406 3.046875 0.703125 C 1.265625 -0.773438 1.113281 -2.414062 2.59375 -4.21875 C 3.132812 -4.851562 3.753906 -5.414062 4.453125 -5.90625 C 5.109375 -6.445312 5.832031 -6.921875 6.625 -7.328125 C 8.9375 -8.472656 11.351562 -9.335938 13.875 -9.921875 C 14.625 -10.128906 15.347656 -10.300781 16.046875 -10.4375 C 16.742188 -10.59375 17.441406 -10.769531 18.140625 -10.96875 C 18.472656 -11.0625 18.765625 -11.164062 19.015625 -11.28125 C 19.171875 -11.570312 19.269531 -12.113281 19.3125 -12.90625 C 19.351562 -13.351562 19.375 -13.800781 19.375 -14.25 L 19.375 -15.0625 L 19.828125 -28.875 L 20.875 -60.6875 C 21.03125 -64.570312 21.066406 -68.453125 20.984375 -72.328125 C 20.910156 -76.203125 20.476562 -80.039062 19.6875 -83.84375 C 19.476562 -84.75 19.722656 -85.535156 20.421875 -86.203125 C 20.628906 -86.410156 20.859375 -86.59375 21.109375 -86.75 C 21.648438 -87.289062 22.226562 -87.519531 22.84375 -87.4375 C 23.457031 -87.363281 23.9375 -87.007812 24.28125 -86.375 C 24.726562 -85.34375 25.078125 -84.253906 25.328125 -83.109375 C 25.867188 -80.285156 26.171875 -77.4375 26.234375 -74.5625 C 26.171875 -72.375 26.140625 -70.222656 26.140625 -68.109375 C 26.140625 -63.492188 26.09375 -58.878906 26 -54.265625 C 25.75 -47.941406 25.476562 -41.582031 25.1875 -35.1875 C 24.9375 -29.644531 24.710938 -24.09375 24.515625 -18.53125 L 24.375 -17.046875 C 24.269531 -16.304688 24.347656 -15.328125 24.609375 -14.109375 C 24.878906 -12.898438 26.289062 -12.539062 28.84375 -13.03125 L 30.453125 -13.34375 C 35.816406 -14.125 42.410156 -14.9375 50.234375 -15.78125 C 58.054688 -16.625 64.296875 -17.046875 68.953125 -17.046875 C 68.992188 -17.046875 69.0625 -17.070312 69.15625 -17.125 Z M 69.15625 -17.125 "/></g></g><g style="fill:rgb(46.269226%,2.349854%,2.349854%);fill-opacity:1;"><g transform="translate(114.877312, 243.189272)"><path style="stroke:none;" d="M 7.5625 -6.078125 C 5.582031 -6.117188 3.972656 -7.003906 2.734375 -8.734375 C 1.492188 -10.472656 0.71875 -12.664062 0.40625 -15.3125 C 0.09375 -17.957031 0.351562 -20.664062 1.1875 -23.4375 C 1.382812 -24.289062 1.9375 -24.910156 2.84375 -25.296875 C 3.46875 -25.492188 4.117188 -25.457031 4.796875 -25.1875 C 5.472656 -24.914062 5.832031 -24.457031 5.875 -23.8125 C 5.875 -23.21875 5.816406 -22.628906 5.703125 -22.046875 C 5.617188 -21.597656 5.550781 -21.171875 5.5 -20.765625 C 5.382812 -19.140625 5.414062 -17.359375 5.59375 -15.421875 C 5.78125 -13.492188 6.289062 -11.832031 7.125 -10.4375 C 7.976562 -9.351562 8.921875 -9.222656 9.953125 -10.046875 C 10.992188 -10.867188 11.910156 -12.144531 12.703125 -13.875 C 13.304688 -15.25 13.773438 -16.617188 14.109375 -17.984375 C 14.453125 -19.347656 14.679688 -20.398438 14.796875 -21.140625 C 14.878906 -21.429688 14.921875 -21.632812 14.921875 -21.75 C 15.078125 -22.332031 15.222656 -22.925781 15.359375 -23.53125 C 15.609375 -24.320312 15.859375 -25.113281 16.109375 -25.90625 C 16.554688 -27.4375 17.644531 -28.078125 19.375 -27.828125 C 20.414062 -27.734375 20.992188 -27.210938 21.109375 -26.265625 C 21.191406 -24.984375 21.210938 -23.703125 21.171875 -22.421875 C 21.128906 -21.859375 21.109375 -21.304688 21.109375 -20.765625 C 20.953125 -18.492188 20.898438 -16.078125 20.953125 -13.515625 C 21.003906 -10.960938 21.425781 -8.851562 22.21875 -7.1875 C 22.3125 -6.988281 22.34375 -6.691406 22.3125 -6.296875 C 22.289062 -5.898438 22.164062 -5.515625 21.9375 -5.140625 C 21.71875 -4.773438 21.359375 -4.550781 20.859375 -4.46875 C 20.367188 -4.394531 19.707031 -4.601562 18.875 -5.09375 C 17.632812 -5.882812 16.835938 -6.957031 16.484375 -8.3125 C 16.140625 -9.675781 15.96875 -11.003906 15.96875 -12.296875 C 15.925781 -13.035156 15.882812 -13.6875 15.84375 -14.25 C 15.382812 -11.65625 14.363281 -9.65625 12.78125 -8.25 C 11.195312 -6.84375 9.457031 -6.117188 7.5625 -6.078125 Z M 7.5625 -6.078125 "/></g></g><g style="fill:rgb(46.269226%,2.349854%,2.349854%);fill-opacity:1;"><g transform="translate(136.743663, 243.189272)"><path style="stroke:none;" d="M 21.546875 -16.171875 C 21.972656 -17.046875 22.265625 -17.453125 22.421875 -17.390625 C 22.578125 -17.328125 22.613281 -16.972656 22.53125 -16.328125 C 22.457031 -15.679688 22.320312 -14.957031 22.125 -14.15625 C 21.820312 -12.914062 21.3125 -11.476562 20.59375 -9.84375 C 19.875 -8.207031 19.078125 -6.726562 18.203125 -5.40625 C 16.898438 -3.5625 15.285156 -2.171875 13.359375 -1.234375 C 11.429688 -0.296875 9.6875 -0.0625 8.125 -0.53125 C 6.5625 -1.007812 5.65625 -2.488281 5.40625 -4.96875 C 5.351562 -7.039062 5.53125 -9.3125 5.9375 -11.78125 C 6.070312 -12.820312 6.21875 -13.835938 6.375 -14.828125 C 6.375 -15.179688 6.285156 -15.453125 6.109375 -15.640625 C 5.929688 -15.835938 5.695312 -15.914062 5.40625 -15.875 C 5.195312 -15.875 4.972656 -15.875 4.734375 -15.875 C 3.492188 -15.664062 2.234375 -15.6875 0.953125 -15.9375 C -0.578125 -16.382812 -1.46875 -17.144531 -1.71875 -18.21875 C -1.96875 -19.289062 -1.945312 -20.691406 -1.65625 -22.421875 C -1.5 -23.660156 -1.035156 -24.585938 -0.265625 -25.203125 C 0.492188 -25.828125 1.394531 -26.082031 2.4375 -25.96875 C 3.875 -25.832031 4.566406 -25.28125 4.515625 -24.3125 C 4.472656 -23.34375 4.207031 -22.304688 3.71875 -21.203125 C 3.269531 -20.285156 3.03125 -19.515625 3 -18.890625 C 2.976562 -18.273438 3.507812 -18.054688 4.59375 -18.234375 C 4.84375 -18.296875 5.113281 -18.375 5.40625 -18.46875 C 5.8125 -18.625 6.269531 -18.765625 6.78125 -18.890625 C 7.300781 -19.015625 7.976562 -19.046875 8.8125 -18.984375 C 9.800781 -18.929688 10.457031 -18.472656 10.78125 -17.609375 C 11.113281 -16.742188 11.253906 -15.65625 11.203125 -14.34375 C 11.160156 -13.039062 11.039062 -11.710938 10.84375 -10.359375 C 10.59375 -8.671875 10.46875 -7.222656 10.46875 -6.015625 C 10.46875 -4.816406 10.816406 -4.117188 11.515625 -3.921875 C 12.441406 -3.671875 13.820312 -4.503906 15.65625 -6.421875 C 17.488281 -8.347656 19.453125 -11.597656 21.546875 -16.171875 Z M 21.546875 -16.171875 "/></g></g><g style="fill:rgb(46.269226%,2.349854%,2.349854%);fill-opacity:1;"><g transform="translate(153.950334, 243.189272)"><path style="stroke:none;" d="M 16.578125 -39.203125 C 16.867188 -39.160156 17.066406 -38.953125 17.171875 -38.578125 C 17.273438 -38.203125 17.273438 -37.8125 17.171875 -37.40625 C 17.066406 -37.007812 16.867188 -36.8125 16.578125 -36.8125 L 5.671875 -36.90625 L 5.671875 -36.609375 C 5.628906 -35.003906 5.53125 -33.085938 5.375 -30.859375 C 5.125 -26.160156 5 -21.390625 5 -16.546875 C 5 -14.898438 5.109375 -12.628906 5.328125 -9.734375 C 5.554688 -6.847656 6.019531 -4.269531 6.71875 -2 C 6.757812 -1.832031 6.90625 -1.546875 7.15625 -1.140625 C 7.445312 -0.648438 7.726562 -0.0976562 8 0.515625 C 8.269531 1.140625 8.394531 1.648438 8.375 2.046875 C 8.351562 2.441406 8.050781 2.554688 7.46875 2.390625 C 5.53125 1.765625 4.050781 0.226562 3.03125 -2.21875 C 2.019531 -4.675781 1.300781 -7.539062 0.875 -10.8125 C 0.445312 -14.09375 0.222656 -17.289062 0.203125 -20.40625 C 0.179688 -23.53125 0.210938 -26.0625 0.296875 -28 C 0.367188 -29.320312 0.425781 -30.648438 0.46875 -31.984375 C 0.519531 -33.671875 0.566406 -35.332031 0.609375 -36.96875 L -7.625 -37.109375 C -8.320312 -37.109375 -8.722656 -37.242188 -8.828125 -37.515625 C -8.929688 -37.785156 -8.859375 -38.0625 -8.609375 -38.34375 C -8.359375 -38.625 -8.03125 -38.785156 -7.625 -38.828125 L 0.671875 -38.96875 L 1.21875 -46.9375 C 1.300781 -48.21875 1.398438 -49.523438 1.515625 -50.859375 C 1.515625 -51.554688 1.539062 -52.253906 1.59375 -52.953125 C 1.59375 -53.984375 1.835938 -54.953125 2.328125 -55.859375 C 2.910156 -56.640625 3.628906 -56.929688 4.484375 -56.734375 C 5.234375 -56.484375 5.648438 -55.960938 5.734375 -55.171875 C 5.828125 -53.890625 5.875 -52.597656 5.875 -51.296875 C 5.875 -50.546875 5.875 -49.800781 5.875 -49.0625 C 5.875 -48.226562 5.875 -47.394531 5.875 -46.5625 L 5.671875 -39.03125 Z M 16.578125 -39.203125 "/></g></g><g style="fill:rgb(46.269226%,2.349854%,2.349854%);fill-opacity:1;"><g transform="translate(162.74933, 243.189272)"><path style="stroke:none;" d="M 9.984375 -12.296875 C 10.753906 -11.304688 11.25 -10.28125 11.46875 -9.21875 C 11.695312 -8.15625 11.785156 -7.003906 11.734375 -5.765625 C 11.679688 -4.535156 11.28125 -3.4375 10.53125 -2.46875 C 9.789062 -1.5 8.554688 -0.910156 6.828125 -0.703125 C 5.085938 -0.566406 3.535156 -0.832031 2.171875 -1.5 C 0.816406 -2.164062 -0.03125 -3.128906 -0.375 -4.390625 C -0.726562 -5.648438 -0.3125 -7.125 0.875 -8.8125 C 1.664062 -9.757812 2.613281 -10.582031 3.71875 -11.28125 C 4.09375 -11.53125 4.484375 -11.800781 4.890625 -12.09375 C 3.566406 -13.53125 2.304688 -15.003906 1.109375 -16.515625 C -0.078125 -18.023438 -0.84375 -19.375 -1.1875 -20.5625 C -1.539062 -21.9375 -1.304688 -23.226562 -0.484375 -24.4375 C 0.335938 -25.65625 1.757812 -26.367188 3.78125 -26.578125 C 4.769531 -26.660156 5.695312 -26.609375 6.5625 -26.421875 C 7.4375 -26.234375 8.242188 -25.8125 8.984375 -25.15625 C 9.140625 -25 9.25 -24.820312 9.3125 -24.625 C 9.382812 -24.4375 9.351562 -24.195312 9.21875 -23.90625 C 8.96875 -23.457031 8.597656 -23.234375 8.109375 -23.234375 C 7.742188 -23.234375 7.394531 -23.28125 7.0625 -23.375 C 6.695312 -23.53125 6.367188 -23.675781 6.078125 -23.8125 C 5.878906 -23.914062 5.6875 -24.015625 5.5 -24.109375 C 4.851562 -24.359375 4.351562 -24.320312 4 -24 C 3.65625 -23.6875 3.484375 -23.207031 3.484375 -22.5625 C 3.523438 -21.40625 3.992188 -20.175781 4.890625 -18.875 C 5.796875 -17.570312 6.6875 -16.367188 7.5625 -15.265625 C 7.925781 -14.878906 8.226562 -14.507812 8.46875 -14.15625 C 8.71875 -13.90625 9.222656 -13.285156 9.984375 -12.296875 Z M 5.40625 -3.234375 C 6.050781 -3.285156 6.472656 -3.644531 6.671875 -4.3125 C 6.878906 -4.988281 6.957031 -5.734375 6.90625 -6.546875 C 6.851562 -7.359375 6.800781 -7.96875 6.75 -8.375 C 6.664062 -8.625 6.507812 -8.78125 6.28125 -8.84375 C 6.050781 -8.914062 5.835938 -8.90625 5.640625 -8.8125 C 4.898438 -8.226562 4.351562 -7.484375 4 -6.578125 C 3.65625 -5.679688 3.679688 -4.894531 4.078125 -4.21875 C 4.210938 -3.96875 4.394531 -3.753906 4.625 -3.578125 C 4.851562 -3.398438 5.113281 -3.285156 5.40625 -3.234375 Z M 5.40625 -3.234375 "/></g></g><g style="fill:rgb(46.269226%,2.349854%,2.349854%);fill-opacity:1;"><g transform="translate(174.080754, 243.189272)"><path style="stroke:none;" d="M 7.796875 -8 C 9.640625 -8 10.296875 -7.109375 9.765625 -5.328125 C 9.515625 -4.628906 9.234375 -3.976562 8.921875 -3.375 C 8.617188 -2.832031 8.195312 -2.476562 7.65625 -2.3125 C 7.125 -2.144531 6.550781 -2.1875 5.9375 -2.4375 C 5.445312 -2.632812 5.175781 -2.984375 5.125 -3.484375 C 5.082031 -4.265625 5.109375 -5.070312 5.203125 -5.90625 C 5.359375 -7.394531 6.222656 -8.09375 7.796875 -8 Z M 7.796875 -8 "/></g></g><g style="fill:rgb(46.269226%,2.349854%,2.349854%);fill-opacity:1;"><g transform="translate(187.93359, 243.189272)"><path style="stroke:none;" d=""/></g></g></g></svg>